<?xml version="1.0" encoding="UTF-8"?>
<svg id="Layer_1" data-name="Layer 1" xmlns="http://www.w3.org/2000/svg" xmlns:xlink="http://www.w3.org/1999/xlink" viewBox="0 0 800 800">
  <defs>
    <style>
      .cls-1 {
        fill: url(#linear-gradient-12);
      }

      .cls-1, .cls-2, .cls-3, .cls-4, .cls-5, .cls-6, .cls-7, .cls-8, .cls-9, .cls-10, .cls-11, .cls-12, .cls-13, .cls-14, .cls-15, .cls-16 {
        stroke-width: 0px;
      }

      .cls-2 {
        fill: url(#linear-gradient);
      }

      .cls-3 {
        fill: url(#linear-gradient-6);
      }

      .cls-4 {
        fill: url(#linear-gradient-15);
      }

      .cls-5 {
        fill: url(#linear-gradient-11);
      }

      .cls-6 {
        fill: url(#linear-gradient-5);
      }

      .cls-7 {
        fill: url(#linear-gradient-13);
      }

      .cls-8 {
        fill: url(#linear-gradient-14);
      }

      .cls-9 {
        fill: url(#linear-gradient-2);
      }

      .cls-10 {
        fill: url(#linear-gradient-7);
      }

      .cls-11 {
        fill: url(#linear-gradient-3);
      }

      .cls-12 {
        fill: #322f2e;
      }

      .cls-13 {
        fill: url(#linear-gradient-9);
      }

      .cls-14 {
        fill: url(#linear-gradient-8);
      }

      .cls-15 {
        fill: url(#linear-gradient-10);
      }

      .cls-16 {
        fill: url(#linear-gradient-4);
      }
    </style>
    <linearGradient id="linear-gradient" x1="66.07" y1="422.26" x2="163.61" y2="422.26" gradientUnits="userSpaceOnUse">
      <stop offset="0" stop-color="#9c6f3e"/>
      <stop offset="1" stop-color="#dbab7a"/>
    </linearGradient>
    <linearGradient id="linear-gradient-2" x1="117.54" y1="391.02" x2="280.23" y2="391.02" xlink:href="#linear-gradient"/>
    <linearGradient id="linear-gradient-3" x1="443.45" y1="447.06" x2="445.72" y2="447.06" xlink:href="#linear-gradient"/>
    <linearGradient id="linear-gradient-4" x1="451.49" y1="447.06" x2="474.14" y2="447.06" xlink:href="#linear-gradient"/>
    <linearGradient id="linear-gradient-5" x1="478.39" y1="447.06" x2="499.97" y2="447.06" xlink:href="#linear-gradient"/>
    <linearGradient id="linear-gradient-6" x1="504.25" y1="447.06" x2="521.56" y2="447.06" xlink:href="#linear-gradient"/>
    <linearGradient id="linear-gradient-7" x1="525.83" y1="447.06" x2="528.1" y2="447.06" xlink:href="#linear-gradient"/>
    <linearGradient id="linear-gradient-8" x1="533.87" y1="447.06" x2="549.43" y2="447.06" xlink:href="#linear-gradient"/>
    <linearGradient id="linear-gradient-9" x1="552.77" y1="447.06" x2="555.04" y2="447.06" xlink:href="#linear-gradient"/>
    <linearGradient id="linear-gradient-10" x1="558.31" y1="443.7" x2="579.41" y2="443.7" xlink:href="#linear-gradient"/>
    <linearGradient id="linear-gradient-11" x1="582.71" y1="447.06" x2="599.76" y2="447.06" xlink:href="#linear-gradient"/>
    <linearGradient id="linear-gradient-12" x1="603.88" y1="447.06" x2="606.14" y2="447.06" xlink:href="#linear-gradient"/>
    <linearGradient id="linear-gradient-13" x1="609.42" y1="447.06" x2="630.52" y2="447.06" xlink:href="#linear-gradient"/>
    <linearGradient id="linear-gradient-14" x1="344.78" y1="448.73" x2="430.09" y2="448.73" xlink:href="#linear-gradient"/>
    <linearGradient id="linear-gradient-15" x1="640.99" y1="448.73" x2="726.3" y2="448.73" xlink:href="#linear-gradient"/>
  </defs>
  <g>
    <polygon class="cls-2" points="66.07 453.66 66.07 382.86 110.51 357.72 163.61 388.14 121.81 413.37 123.69 486.8 66.07 453.66"/>
    <polygon class="cls-9" points="169.76 313.2 117.54 346.84 220.98 409.6 220.98 468.85 280.23 422.26 280.23 377.47 169.76 313.2"/>
  </g>
  <g>
    <path class="cls-12" d="M339.81,408.17v-47.16h21.26c2.21,0,4.26.45,6.14,1.36,1.88.91,3.51,2.13,4.88,3.65,1.37,1.53,2.45,3.25,3.22,5.15.77,1.9,1.16,3.83,1.16,5.78s-.31,3.8-.93,5.55c-.62,1.75-1.51,3.32-2.66,4.72-1.15,1.39-2.52,2.53-4.12,3.42l10.36,17.54h-12.02l-9.03-15.21h-7.37v15.21h-10.89ZM350.71,383.45h9.96c.89,0,1.67-.28,2.36-.83.69-.55,1.25-1.32,1.69-2.29.44-.97.66-2.1.66-3.39s-.26-2.4-.76-3.35c-.51-.95-1.14-1.69-1.89-2.23-.75-.53-1.55-.8-2.39-.8h-9.63v12.89Z"/>
    <path class="cls-12" d="M417.47,398.6v9.57h-33.15v-47.16h32.55v9.57h-21.66v9.17h18.6v8.83h-18.6v10.03h22.25Z"/>
    <path class="cls-12" d="M436,361h11.76l16.21,47.16h-11.16l-3.2-10.56h-15.53l-3.2,10.56h-11.16l16.27-47.16ZM447.34,390.1l-5.49-18.13-5.49,18.13h10.98Z"/>
    <path class="cls-12" d="M468.62,408.17v-47.16h10.89v37.6h22.85v9.57h-33.75Z"/>
    <path class="cls-12" d="M521.03,408.17v-47.16h10.89v37.6h22.85v9.57h-33.75Z"/>
    <path class="cls-12" d="M579.68,408.5c-3.54,0-6.74-.67-9.6-2.03-2.86-1.35-5.31-3.17-7.37-5.45-2.06-2.28-3.64-4.85-4.75-7.71-1.11-2.86-1.66-5.81-1.66-8.87s.59-6.13,1.76-8.97c1.17-2.83,2.81-5.37,4.92-7.61,2.1-2.24,4.59-4,7.47-5.28,2.88-1.29,6.02-1.93,9.43-1.93s6.68.68,9.53,2.03c2.86,1.35,5.31,3.18,7.37,5.48,2.06,2.3,3.64,4.88,4.75,7.74,1.11,2.86,1.66,5.77,1.66,8.74,0,3.14-.58,6.13-1.73,8.97-1.15,2.83-2.79,5.37-4.92,7.61-2.13,2.24-4.62,4.01-7.47,5.31-2.86,1.31-5.99,1.96-9.4,1.96ZM567.39,384.58c0,1.82.27,3.58.8,5.28.53,1.71,1.32,3.22,2.36,4.55,1.04,1.33,2.33,2.39,3.89,3.19,1.55.8,3.32,1.2,5.31,1.2s3.9-.41,5.45-1.23c1.55-.82,2.83-1.92,3.85-3.29,1.02-1.37,1.78-2.91,2.29-4.62.51-1.7.76-3.44.76-5.21s-.26-3.57-.8-5.25c-.53-1.68-1.33-3.2-2.39-4.55-1.06-1.35-2.37-2.4-3.92-3.16-1.55-.75-3.3-1.13-5.25-1.13-2.08,0-3.89.4-5.41,1.2-1.53.8-2.81,1.87-3.85,3.22-1.04,1.35-1.82,2.88-2.33,4.58-.51,1.7-.76,3.44-.76,5.21Z"/>
    <path class="cls-12" d="M644.52,370.57h-14.35v37.6h-10.89v-37.6h-14.42v-9.57h39.66v9.57Z"/>
    <path class="cls-12" d="M670.09,408.5c-3.76,0-6.98-.63-9.63-1.89-2.66-1.26-4.82-2.98-6.48-5.17-1.66-2.19-2.88-4.69-3.65-7.5-.77-2.81-1.16-5.76-1.16-8.86v-24.08h10.89v24.07c0,1.77.18,3.48.53,5.14.35,1.66.93,3.13,1.73,4.41.8,1.28,1.83,2.3,3.09,3.05,1.26.75,2.82,1.13,4.68,1.13s3.5-.39,4.78-1.16c1.28-.77,2.3-1.81,3.06-3.12.75-1.3,1.31-2.77,1.66-4.41.35-1.63.53-3.32.53-5.04v-24.07h10.89v24.08c0,3.27-.41,6.32-1.23,9.15-.82,2.83-2.07,5.32-3.75,7.46-1.68,2.14-3.84,3.81-6.48,5.01-2.63,1.19-5.79,1.79-9.47,1.79Z"/>
    <path class="cls-12" d="M727.75,374.89c-.13-.22-.6-.56-1.39-1.03-.8-.46-1.79-.96-2.99-1.49-1.2-.53-2.5-1-3.92-1.4-1.42-.4-2.83-.6-4.25-.6-1.86,0-3.3.32-4.32.96-1.02.64-1.53,1.62-1.53,2.93,0,1.06.39,1.89,1.16,2.51.77.62,1.89,1.16,3.36,1.62,1.46.46,3.25,1,5.38,1.61,3.01.79,5.62,1.75,7.84,2.87,2.21,1.12,3.91,2.56,5.08,4.32,1.17,1.76,1.76,4.09,1.76,6.99,0,2.64-.49,4.87-1.46,6.7-.97,1.82-2.29,3.3-3.95,4.42-1.66,1.12-3.55,1.93-5.68,2.44-2.13.51-4.32.76-6.58.76s-4.66-.23-7.07-.7c-2.41-.46-4.73-1.13-6.94-1.99-2.22-.86-4.25-1.92-6.11-3.16l4.78-9.5c.18.22.75.63,1.73,1.23.97.6,2.18,1.22,3.62,1.86,1.44.64,3.04,1.21,4.82,1.69,1.77.49,3.57.73,5.38.73,1.95,0,3.4-.3,4.35-.91.95-.61,1.43-1.45,1.43-2.54,0-1.19-.5-2.11-1.49-2.77-1-.66-2.35-1.25-4.05-1.78-1.7-.53-3.67-1.12-5.88-1.78-2.88-.88-5.26-1.87-7.14-2.97-1.88-1.1-3.28-2.44-4.19-4.03-.91-1.59-1.36-3.57-1.36-5.95,0-3.3.79-6.09,2.36-8.36,1.57-2.27,3.69-3.99,6.34-5.15,2.66-1.17,5.56-1.75,8.7-1.75,2.21,0,4.35.26,6.41.8,2.06.53,3.99,1.2,5.78,1.99,1.79.8,3.4,1.59,4.82,2.39l-4.78,9.03Z"/>
  </g>
  <g>
    <path class="cls-11" d="M443.45,458.56v-23.01h2.27v23.01h-2.27Z"/>
    <path class="cls-16" d="M471.87,458.56v-18.73l-8.33,14.55h-1.43l-8.36-14.55v18.73h-2.27v-23.01h2.33l8.98,15.75,9.04-15.75h2.3v23.01h-2.27Z"/>
    <path class="cls-6" d="M489.18,458.72c-1.62,0-3.09-.32-4.41-.97-1.32-.65-2.45-1.53-3.4-2.64-.95-1.11-1.69-2.37-2.2-3.76-.52-1.39-.78-2.82-.78-4.3s.27-3,.81-4.39c.54-1.39,1.3-2.64,2.28-3.73.98-1.09,2.13-1.96,3.45-2.59,1.32-.64,2.74-.96,4.28-.96,1.62,0,3.09.34,4.41,1,1.32.67,2.45,1.57,3.39,2.69.94,1.12,1.67,2.38,2.19,3.76.52,1.38.78,2.8.78,4.25,0,1.54-.27,3-.81,4.39-.54,1.39-1.3,2.64-2.27,3.73s-2.12,1.95-3.44,2.58c-1.32.63-2.74.94-4.28.94ZM480.66,447.06c0,1.25.21,2.46.62,3.61.41,1.16.99,2.18,1.75,3.08.76.9,1.66,1.61,2.71,2.14s2.2.79,3.45.79c1.32,0,2.5-.28,3.55-.83,1.05-.55,1.94-1.29,2.69-2.2.75-.92,1.31-1.95,1.7-3.1.39-1.14.58-2.31.58-3.5,0-1.25-.21-2.45-.62-3.6-.41-1.14-1-2.17-1.77-3.08-.77-.91-1.67-1.62-2.71-2.14-1.04-.52-2.18-.78-3.44-.78s-2.47.27-3.52.81-1.94,1.27-2.69,2.19c-.75.92-1.32,1.95-1.72,3.1-.4,1.14-.6,2.31-.6,3.5Z"/>
    <path class="cls-3" d="M521.56,452.63c0,1.14-.29,2.17-.87,3.06-.58.9-1.37,1.6-2.35,2.11-.98.51-2.06.76-3.22.76h-10.86v-23.01h11.08c1.08,0,2.01.29,2.8.86.79.57,1.39,1.31,1.81,2.2s.63,1.83.63,2.8c0,1.15-.29,2.2-.87,3.18-.58.97-1.39,1.7-2.43,2.17,1.32.39,2.36,1.11,3.13,2.17.77,1.06,1.15,2.29,1.15,3.7ZM506.52,437.53v8.49h7.91c.76,0,1.43-.2,2.01-.6s1.05-.92,1.39-1.57c.35-.65.52-1.34.52-2.07,0-.78-.16-1.49-.49-2.12-.32-.64-.77-1.15-1.33-1.54-.56-.39-1.2-.58-1.91-.58h-8.1ZM519.29,452.24c0-.78-.17-1.5-.52-2.16-.35-.66-.82-1.19-1.41-1.6-.59-.41-1.27-.62-2.03-.62h-8.82v8.72h8.59c.78,0,1.48-.21,2.11-.62.63-.41,1.13-.94,1.51-1.6.38-.66.57-1.37.57-2.12Z"/>
    <path class="cls-10" d="M525.83,458.56v-23.01h2.27v23.01h-2.27Z"/>
    <path class="cls-14" d="M533.87,458.56v-23.01h2.27v21h13.29v2.01h-15.56Z"/>
    <path class="cls-13" d="M552.77,458.56v-23.01h2.27v23.01h-2.27Z"/>
    <path class="cls-15" d="M567.93,435.55h1.91l9.56,23.01h-2.4l-2.87-7.19h-10.52l-2.88,7.19h-2.43l9.63-23.01ZM573.42,449.59l-4.55-11.38-4.55,11.38h9.09ZM569.65,432.41l-1.46-.55,1.91-3.02h2.33l-2.79,3.57Z"/>
    <path class="cls-5" d="M582.71,458.56v-23.01h9.72c.99,0,1.9.21,2.72.62.82.41,1.54.97,2.16,1.67.62.7,1.09,1.48,1.43,2.33.33.85.5,1.72.5,2.61,0,1.1-.21,2.14-.63,3.11-.42.97-1.02,1.79-1.78,2.46s-1.67,1.11-2.71,1.33l5.64,8.88h-2.56l-5.41-8.49h-6.81v8.49h-2.27ZM584.98,448.06h7.52c.91,0,1.7-.25,2.37-.74.67-.5,1.19-1.15,1.56-1.96.37-.81.55-1.67.55-2.58s-.21-1.79-.63-2.58c-.42-.79-.98-1.43-1.69-1.91s-1.49-.73-2.35-.73h-7.32v10.5Z"/>
    <path class="cls-1" d="M603.88,458.56v-23.01h2.27v23.01h-2.27Z"/>
    <path class="cls-7" d="M619.04,435.55h1.91l9.56,23.01h-2.4l-2.87-7.19h-10.52l-2.88,7.19h-2.43l9.63-23.01ZM624.53,449.59l-4.55-11.38-4.55,11.38h9.09Z"/>
  </g>
  <g>
    <rect class="cls-8" x="344.78" y="447.3" width="85.31" height="2.86"/>
    <rect class="cls-4" x="640.99" y="447.3" width="85.31" height="2.86"/>
  </g>
</svg>