<svg width="270" height="270" viewBox="0 0 270 270" fill="none" xmlns="http://www.w3.org/2000/svg">
<path d="M134.999 265.999C117.796 265.999 100.762 262.61 84.8677 256.027C68.9744 249.444 54.5328 239.795 42.3686 227.63C30.204 215.466 20.5549 201.024 13.9713 185.131C7.38822 169.237 4 152.202 4 134.999C4 117.796 7.38822 100.762 13.9713 84.8683C20.5549 68.9744 30.204 54.5333 42.3686 42.3687C54.5333 30.2045 68.9744 20.5549 84.8677 13.9718C100.762 7.38822 117.796 4 134.999 4C152.202 4 169.237 7.38822 185.131 13.9718C201.024 20.5549 215.465 30.2045 227.63 42.3687C239.795 54.5333 249.446 68.9744 256.026 84.8683C262.611 100.762 266 117.796 266 134.999C266 152.202 262.611 169.237 256.026 185.131C249.441 201.024 239.795 215.466 227.63 227.63C215.465 239.795 201.024 249.444 185.13 256.027C169.237 262.61 152.202 265.999 134.999 265.999Z" stroke="#F0F3FF" stroke-width="7.41536" stroke-linecap="round"/>
<path d="M135 265.999C115.594 265.999 96.4313 261.688 78.8961 253.377C61.3604 245.066 45.8902 232.964 33.6034 217.943C21.3166 202.923 12.5204 185.362 7.85049 166.527C3.18005 147.692 2.75284 128.054 6.59896 109.034C10.4451 90.0143 18.4689 72.0862 30.0904 56.5458C41.7119 41.0054 56.6411 28.241 73.7984 19.1751C90.9557 10.1091 109.913 4.96832 129.299 4.12426C148.686 3.27967 168.018 6.75313 185.899 14.2931" stroke="#05CD99" stroke-width="7.41536" stroke-linecap="round"/>
<path d="M134.616 235.236C121.36 235.236 108.234 232.625 95.987 227.552C83.7403 222.479 72.6124 215.043 63.2386 205.67C53.8654 196.297 46.4299 185.169 41.3572 172.922C36.2845 160.675 33.6731 147.548 33.6731 134.292C33.6731 121.037 36.2845 107.91 41.3572 95.6634C46.4299 83.4163 53.8654 72.2883 63.2386 62.915C72.6124 53.5418 83.7403 46.1062 95.987 41.0331C108.234 35.9604 121.36 33.3495 134.616 33.3495C147.873 33.3495 160.999 35.9604 173.246 41.0331C185.492 46.1062 196.62 53.5418 205.994 62.915C215.367 72.2883 222.803 83.4163 227.874 95.6634C232.947 107.911 235.558 121.037 235.558 134.293C235.558 147.548 232.947 160.675 227.874 172.922C222.802 185.169 215.367 196.297 205.994 205.67C196.62 215.043 185.492 222.479 173.245 227.552C160.999 232.625 147.873 235.236 134.616 235.236Z" stroke="#F0F3FF" stroke-width="7.41536" stroke-linecap="round"/>
<path d="M134.616 235.236C117.574 235.236 100.81 230.921 85.8848 222.693C70.9603 214.466 58.3615 202.595 49.2633 188.184C40.1646 173.774 34.8629 157.295 33.851 140.283C32.8396 123.271 36.1521 106.28 43.4789 90.8936C50.8057 75.5069 61.909 62.2261 75.7538 52.2883C89.5986 42.3506 105.734 36.0798 122.656 34.0608C139.578 32.0412 156.736 34.339 172.53 40.7399C188.324 47.1409 202.241 57.4363 212.983 70.6669" stroke="#FFCC5E" stroke-width="7.41536" stroke-linecap="round"/>
<path d="M135.513 209.346C125.775 209.346 116.132 207.428 107.134 203.702C98.1373 199.975 89.9624 194.512 83.0764 187.626C76.1904 180.74 70.728 172.565 67.001 163.568C63.2744 154.571 61.3562 144.928 61.3562 135.189C61.3562 125.451 63.2744 115.808 67.001 106.811C70.728 97.814 76.1904 89.6387 83.0764 82.7527C89.9624 75.8666 98.1373 70.4043 107.134 66.6777C116.132 62.9511 125.775 61.0329 135.513 61.0329C145.251 61.0329 154.895 62.9511 163.892 66.6777C172.889 70.4043 181.064 75.8666 187.95 82.7527C194.836 89.6387 200.298 97.814 204.025 106.811C207.752 115.808 209.67 125.451 209.67 135.189C209.67 144.928 207.752 154.571 204.025 163.568C200.298 172.565 194.836 180.74 187.95 187.626C181.064 194.512 172.889 199.975 163.892 203.702C154.895 207.428 145.251 209.346 135.513 209.346Z" stroke="#EDF1FC" stroke-width="7.41536" stroke-linecap="round"/>
<path d="M135.513 209.347C119.129 209.347 103.206 203.92 90.2308 193.916C77.2559 183.911 67.9592 169.891 63.7934 154.045C59.6275 138.199 60.8265 121.42 67.2031 106.328C73.58 91.2352 84.7753 78.6796 99.0411 70.6213C113.307 62.5635 129.84 59.4565 146.057 61.7863C162.275 64.116 177.265 71.7509 188.686 83.4991C200.106 95.247 207.314 110.446 209.185 126.723C211.055 143.001 207.483 159.439 199.025 173.472" stroke="#158EFF" stroke-width="7.41536" stroke-linecap="round"/>
<path d="M136.179 172.406C156.311 172.406 172.63 155.302 172.63 134.203C172.63 113.104 156.311 96 136.179 96C116.048 96 99.7283 113.104 99.7283 134.203C99.7283 155.302 116.048 172.406 136.179 172.406Z" fill="url(#paint0_linear_301_916)"/>
<path fill-rule="evenodd" clip-rule="evenodd" d="M151.864 124.2C151.86 124.064 151.823 123.936 151.788 123.806C151.761 123.697 151.749 123.585 151.704 123.485C151.663 123.387 151.592 123.308 151.531 123.218C151.456 123.103 151.387 122.988 151.29 122.894C151.274 122.877 151.267 122.854 151.249 122.839C151.184 122.781 151.105 122.76 151.035 122.713C150.927 122.639 150.821 122.564 150.699 122.515C150.578 122.47 150.46 122.458 150.335 122.439C150.249 122.426 150.172 122.385 150.08 122.385H141.089C140.095 122.385 139.291 123.229 139.291 124.269C139.291 125.31 140.095 126.154 141.089 126.154H146.171L138.913 135.027L131.224 130.193C130.463 129.71 129.485 129.888 128.917 130.602L119.926 141.91C119.291 142.709 119.394 143.898 120.156 144.563C120.494 144.857 120.9 145.001 121.307 145.001C121.823 145.001 122.334 144.771 122.69 144.322L130.695 134.254L138.365 139.079C139.118 139.552 140.086 139.386 140.656 138.689L148.282 129.364V133.693C148.282 134.733 149.086 135.577 150.08 135.577C151.074 135.577 151.878 134.733 151.878 133.693V124.269C151.878 124.245 151.866 124.224 151.864 124.2Z" fill="#231F20"/>
<mask id="mask0_301_916" style="mask-type:luminance" maskUnits="userSpaceOnUse" x="119" y="122" width="33" height="24">
<path fill-rule="evenodd" clip-rule="evenodd" d="M151.864 124.2C151.86 124.064 151.823 123.936 151.788 123.806C151.761 123.697 151.749 123.585 151.704 123.485C151.663 123.387 151.592 123.308 151.531 123.218C151.456 123.103 151.387 122.988 151.29 122.894C151.274 122.877 151.267 122.854 151.249 122.839C151.184 122.781 151.105 122.76 151.035 122.713C150.927 122.639 150.821 122.564 150.699 122.515C150.578 122.47 150.46 122.458 150.335 122.439C150.249 122.426 150.172 122.385 150.08 122.385H141.089C140.095 122.385 139.291 123.229 139.291 124.269C139.291 125.31 140.095 126.154 141.089 126.154H146.171L138.913 135.027L131.224 130.193C130.463 129.71 129.485 129.888 128.917 130.602L119.926 141.91C119.291 142.709 119.394 143.898 120.156 144.563C120.494 144.857 120.9 145.001 121.307 145.001C121.823 145.001 122.334 144.771 122.69 144.322L130.695 134.254L138.365 139.079C139.118 139.552 140.086 139.386 140.656 138.689L148.282 129.364V133.693C148.282 134.733 149.086 135.577 150.08 135.577C151.074 135.577 151.878 134.733 151.878 133.693V124.269C151.878 124.245 151.866 124.224 151.864 124.2Z" fill="white"/>
</mask>
<g mask="url(#mask0_301_916)">
<rect x="114.115" y="111.077" width="43.1572" height="45.2316" fill="white"/>
</g>
<defs>
<linearGradient id="paint0_linear_301_916" x1="136.179" y1="96" x2="136.179" y2="172.406" gradientUnits="userSpaceOnUse">
<stop stop-color="#158EFF"/>
<stop offset="1" stop-color="#133676"/>
</linearGradient>
</defs>
</svg>
