<svg width="701" height="598" viewBox="0 0 701 598" fill="none" xmlns="http://www.w3.org/2000/svg">
<g filter="url(#filter0_d_301_1063)">
<g clip-path="url(#clip0_301_1063)">
<rect x="88" y="72" width="509" height="315.624" rx="11.1135" fill="white"/>
<g clip-path="url(#clip1_301_1063)">
<rect x="114.673" y="98.6725" width="455.655" height="104.467" rx="11.1135" fill="white"/>
<rect x="114.673" y="98.6725" width="455.655" height="104.467" rx="11.1135" fill="url(#paint0_linear_301_1063)"/>
<mask id="mask0_301_1063" style="mask-type:alpha" maskUnits="userSpaceOnUse" x="114" y="98" width="457" height="106">
<rect x="114.673" y="98.6725" width="455.655" height="104.467" rx="11.1135" fill="#158EFF"/>
</mask>
<g mask="url(#mask0_301_1063)">
<path d="M134.297 183V179.479C135.814 178.27 137.272 177.061 138.671 175.852C140.094 174.643 141.374 173.445 142.512 172.26C143.65 171.051 144.551 169.877 145.215 168.739C145.879 167.601 146.21 166.499 146.21 165.432C146.21 164.768 146.08 164.163 145.819 163.618C145.582 163.049 145.215 162.599 144.717 162.267C144.219 161.911 143.567 161.733 142.761 161.733C141.931 161.733 141.232 161.923 140.663 162.302C140.117 162.681 139.702 163.191 139.418 163.831C139.133 164.448 138.991 165.147 138.991 165.93H134.332C134.403 164.104 134.818 162.575 135.577 161.342C136.336 160.109 137.343 159.196 138.6 158.604C139.88 157.987 141.315 157.679 142.903 157.679C144.634 157.679 146.104 158.011 147.313 158.675C148.522 159.315 149.435 160.192 150.051 161.306C150.691 162.421 151.012 163.701 151.012 165.147C151.012 166.238 150.81 167.305 150.407 168.348C150.004 169.391 149.459 170.411 148.771 171.406C148.083 172.378 147.301 173.315 146.424 174.216C145.57 175.117 144.669 175.982 143.721 176.812C142.796 177.618 141.884 178.377 140.983 179.088H151.581V183H134.297ZM161.89 183.427C160.065 183.427 158.488 183.107 157.16 182.467C155.856 181.803 154.825 180.914 154.066 179.799C153.331 178.661 152.893 177.381 152.75 175.958H157.445C157.635 176.907 158.132 177.713 158.939 178.377C159.745 179.017 160.74 179.337 161.926 179.337C162.779 179.337 163.526 179.124 164.166 178.697C164.806 178.27 165.304 177.689 165.66 176.954C166.039 176.196 166.229 175.366 166.229 174.465C166.229 173.493 166.039 172.663 165.66 171.975C165.304 171.264 164.806 170.731 164.166 170.375C163.526 169.996 162.791 169.806 161.961 169.806C160.942 169.806 160.053 170.055 159.294 170.553C158.559 171.051 158.038 171.679 157.729 172.438H153.142L155.275 158.106H169.145V162.302H158.832L157.729 167.779C158.251 167.234 158.95 166.783 159.828 166.427C160.705 166.072 161.701 165.894 162.815 165.894C164.143 165.894 165.304 166.131 166.3 166.605C167.32 167.056 168.161 167.684 168.825 168.49C169.513 169.296 170.022 170.209 170.354 171.229C170.686 172.248 170.852 173.303 170.852 174.394C170.852 175.721 170.627 176.942 170.177 178.057C169.75 179.147 169.133 180.096 168.327 180.902C167.545 181.708 166.608 182.336 165.518 182.787C164.427 183.213 163.218 183.427 161.89 183.427ZM175.197 183.178C174.32 183.178 173.597 182.917 173.028 182.395C172.482 181.85 172.21 181.198 172.21 180.439C172.21 179.657 172.482 179.005 173.028 178.483C173.597 177.938 174.32 177.666 175.197 177.666C176.051 177.666 176.75 177.938 177.295 178.483C177.841 179.005 178.113 179.657 178.113 180.439C178.113 181.198 177.841 181.85 177.295 182.395C176.75 182.917 176.051 183.178 175.197 183.178ZM179.475 183V179.479C180.992 178.27 182.45 177.061 183.849 175.852C185.271 174.643 186.552 173.445 187.69 172.26C188.828 171.051 189.729 169.877 190.393 168.739C191.056 167.601 191.388 166.499 191.388 165.432C191.388 164.768 191.258 164.163 190.997 163.618C190.76 163.049 190.393 162.599 189.895 162.267C189.397 161.911 188.745 161.733 187.939 161.733C187.109 161.733 186.41 161.923 185.841 162.302C185.295 162.681 184.88 163.191 184.596 163.831C184.311 164.448 184.169 165.147 184.169 165.93H179.51C179.581 164.104 179.996 162.575 180.755 161.342C181.514 160.109 182.521 159.196 183.778 158.604C185.058 157.987 186.492 157.679 188.081 157.679C189.812 157.679 191.282 158.011 192.491 158.675C193.7 159.315 194.613 160.192 195.229 161.306C195.869 162.421 196.189 163.701 196.189 165.147C196.189 166.238 195.988 167.305 195.585 168.348C195.182 169.391 194.636 170.411 193.949 171.406C193.261 172.378 192.479 173.315 191.602 174.216C190.748 175.117 189.847 175.982 188.899 176.812C187.974 177.618 187.062 178.377 186.161 179.088H196.758V183H179.475ZM201.485 183V163.618L197.359 164.578V160.844L203.512 158.106H206.464V183H201.485ZM217.601 183.427C215.775 183.427 214.199 183.107 212.871 182.467C211.567 181.803 210.536 180.914 209.777 179.799C209.042 178.661 208.604 177.381 208.461 175.958H213.156C213.345 176.907 213.843 177.713 214.649 178.377C215.455 179.017 216.451 179.337 217.637 179.337C218.49 179.337 219.237 179.124 219.877 178.697C220.517 178.27 221.015 177.689 221.371 176.954C221.75 176.196 221.94 175.366 221.94 174.465C221.94 173.493 221.75 172.663 221.371 171.975C221.015 171.264 220.517 170.731 219.877 170.375C219.237 169.996 218.502 169.806 217.672 169.806C216.653 169.806 215.764 170.055 215.005 170.553C214.27 171.051 213.748 171.679 213.44 172.438H208.852L210.986 158.106H224.856V162.302H214.543L213.44 167.779C213.962 167.234 214.661 166.783 215.538 166.427C216.416 166.072 217.411 165.894 218.526 165.894C219.853 165.894 221.015 166.131 222.011 166.605C223.03 167.056 223.872 167.684 224.536 168.49C225.223 169.296 225.733 170.209 226.065 171.229C226.397 172.248 226.563 173.303 226.563 174.394C226.563 175.721 226.338 176.942 225.887 178.057C225.461 179.147 224.844 180.096 224.038 180.902C223.256 181.708 222.319 182.336 221.229 182.787C220.138 183.213 218.929 183.427 217.601 183.427ZM230.908 183.178C230.031 183.178 229.307 182.917 228.738 182.395C228.193 181.85 227.921 181.198 227.921 180.439C227.921 179.657 228.193 179.005 228.738 178.483C229.307 177.938 230.031 177.666 230.908 177.666C231.761 177.666 232.461 177.938 233.006 178.483C233.551 179.005 233.824 179.657 233.824 180.439C233.824 181.198 233.551 181.85 233.006 182.395C232.461 182.917 231.761 183.178 230.908 183.178ZM235.185 183V179.479C236.703 178.27 238.161 177.061 239.56 175.852C240.982 174.643 242.263 173.445 243.401 172.26C244.539 171.051 245.44 169.877 246.103 168.739C246.767 167.601 247.099 166.499 247.099 165.432C247.099 164.768 246.969 164.163 246.708 163.618C246.471 163.049 246.103 162.599 245.605 162.267C245.108 161.911 244.456 161.733 243.65 161.733C242.82 161.733 242.12 161.923 241.551 162.302C241.006 162.681 240.591 163.191 240.307 163.831C240.022 164.448 239.88 165.147 239.88 165.93H235.221C235.292 164.104 235.707 162.575 236.466 161.342C237.224 160.109 238.232 159.196 239.489 158.604C240.769 157.987 242.203 157.679 243.792 157.679C245.523 157.679 246.992 158.011 248.202 158.675C249.411 159.315 250.324 160.192 250.94 161.306C251.58 162.421 251.9 163.701 251.9 165.147C251.9 166.238 251.699 167.305 251.296 168.348C250.893 169.391 250.347 170.411 249.66 171.406C248.972 172.378 248.19 173.315 247.313 174.216C246.459 175.117 245.558 175.982 244.61 176.812C243.685 177.618 242.772 178.377 241.871 179.088H252.469V183H235.185ZM263.846 183.427C261.973 183.427 260.384 183.083 259.08 182.395C257.8 181.684 256.769 180.748 255.986 179.586C255.204 178.424 254.635 177.132 254.279 175.71C253.947 174.287 253.781 172.841 253.781 171.371C253.781 168.573 254.173 166.155 254.955 164.116C255.737 162.077 256.864 160.5 258.334 159.386C259.827 158.248 261.617 157.679 263.704 157.679C265.434 157.679 266.904 158.023 268.113 158.71C269.323 159.374 270.259 160.263 270.923 161.377C271.587 162.468 271.978 163.654 272.097 164.934H267.616C267.426 163.867 266.987 163.049 266.3 162.48C265.612 161.911 264.723 161.626 263.632 161.626C262.637 161.626 261.759 161.935 261.001 162.551C260.242 163.168 259.638 164.092 259.187 165.325C258.76 166.558 258.523 168.111 258.476 169.984C258.476 170.008 258.476 170.031 258.476 170.055C258.476 170.079 258.476 170.114 258.476 170.162C258.855 169.522 259.353 168.964 259.969 168.49C260.61 167.992 261.333 167.601 262.139 167.317C262.945 167.032 263.798 166.89 264.699 166.89C266.075 166.89 267.355 167.222 268.54 167.886C269.749 168.549 270.721 169.486 271.456 170.695C272.215 171.904 272.594 173.339 272.594 174.998C272.594 176.492 272.227 177.891 271.492 179.195C270.757 180.475 269.738 181.506 268.434 182.289C267.13 183.047 265.6 183.427 263.846 183.427ZM263.597 179.301C264.427 179.301 265.174 179.124 265.837 178.768C266.525 178.412 267.058 177.926 267.438 177.31C267.817 176.67 268.007 175.947 268.007 175.141C268.007 174.287 267.817 173.552 267.438 172.936C267.058 172.319 266.525 171.833 265.837 171.477C265.174 171.122 264.403 170.944 263.526 170.944C262.696 170.944 261.937 171.134 261.25 171.513C260.586 171.869 260.052 172.367 259.649 173.007C259.27 173.623 259.08 174.323 259.08 175.105C259.08 175.911 259.27 176.634 259.649 177.274C260.052 177.891 260.598 178.389 261.285 178.768C261.973 179.124 262.743 179.301 263.597 179.301ZM286.022 183V178.483H273.788V174.678L283.746 158.106H290.823V174.323H294.059V178.483H290.823V183H286.022ZM278.909 174.323H286.342V161.698H286.235L278.909 174.323ZM294.378 187.374L296.405 178.341H301.028L297.507 187.374H294.378ZM312.115 183.427C310.242 183.427 308.653 183.083 307.349 182.395C306.069 181.684 305.038 180.748 304.255 179.586C303.473 178.424 302.904 177.132 302.548 175.71C302.216 174.287 302.05 172.841 302.05 171.371C302.05 168.573 302.442 166.155 303.224 164.116C304.006 162.077 305.132 160.5 306.602 159.386C308.096 158.248 309.886 157.679 311.972 157.679C313.703 157.679 315.173 158.023 316.382 158.71C317.591 159.374 318.528 160.263 319.192 161.377C319.856 162.468 320.247 163.654 320.365 164.934H315.884C315.695 163.867 315.256 163.049 314.569 162.48C313.881 161.911 312.992 161.626 311.901 161.626C310.906 161.626 310.028 161.935 309.27 162.551C308.511 163.168 307.906 164.092 307.456 165.325C307.029 166.558 306.792 168.111 306.745 169.984C306.745 170.008 306.745 170.031 306.745 170.055C306.745 170.079 306.745 170.114 306.745 170.162C307.124 169.522 307.622 168.964 308.238 168.49C308.878 167.992 309.602 167.601 310.408 167.317C311.214 167.032 312.067 166.89 312.968 166.89C314.343 166.89 315.624 167.222 316.809 167.886C318.018 168.549 318.99 169.486 319.725 170.695C320.484 171.904 320.863 173.339 320.863 174.998C320.863 176.492 320.496 177.891 319.761 179.195C319.026 180.475 318.006 181.506 316.702 182.289C315.398 183.047 313.869 183.427 312.115 183.427ZM311.866 179.301C312.696 179.301 313.442 179.124 314.106 178.768C314.794 178.412 315.327 177.926 315.707 177.31C316.086 176.67 316.276 175.947 316.276 175.141C316.276 174.287 316.086 173.552 315.707 172.936C315.327 172.319 314.794 171.833 314.106 171.477C313.442 171.122 312.672 170.944 311.795 170.944C310.965 170.944 310.206 171.134 309.519 171.513C308.855 171.869 308.321 172.367 307.918 173.007C307.539 173.623 307.349 174.323 307.349 175.105C307.349 175.911 307.539 176.634 307.918 177.274C308.321 177.891 308.867 178.389 309.554 178.768C310.242 179.124 311.012 179.301 311.866 179.301ZM324.271 183L333.553 162.195H321.533V158.106H338.496V161.484L329.214 183H324.271ZM345.086 183L353.301 158.106H360.484L368.664 183H363.614L356.928 161.662H356.857L350.1 183H345.086ZM349.069 176.279L350.349 172.509H363.009L364.29 176.279H349.069ZM380.349 183.427C377.884 183.427 375.714 182.881 373.841 181.791C371.968 180.7 370.498 179.195 369.431 177.274C368.388 175.33 367.867 173.09 367.867 170.553C367.867 168.016 368.388 165.787 369.431 163.867C370.498 161.923 371.968 160.405 373.841 159.315C375.714 158.224 377.884 157.679 380.349 157.679C382.815 157.679 384.984 158.224 386.857 159.315C388.754 160.405 390.224 161.923 391.267 163.867C392.334 165.787 392.868 168.016 392.868 170.553C392.868 173.09 392.334 175.33 391.267 177.274C390.224 179.195 388.754 180.7 386.857 181.791C384.984 182.881 382.815 183.427 380.349 183.427ZM380.349 179.124C381.89 179.124 383.23 178.78 384.368 178.092C385.506 177.381 386.383 176.385 387 175.105C387.64 173.825 387.96 172.307 387.96 170.553C387.96 168.775 387.64 167.257 387 166.001C386.383 164.72 385.506 163.737 384.368 163.049C383.23 162.361 381.89 162.018 380.349 162.018C378.808 162.018 377.469 162.361 376.331 163.049C375.193 163.737 374.304 164.72 373.663 166.001C373.047 167.257 372.739 168.775 372.739 170.553C372.739 172.307 373.047 173.825 373.663 175.105C374.304 176.385 375.193 177.381 376.331 178.092C377.469 178.78 378.808 179.124 380.349 179.124ZM391.921 183L400.136 158.106H407.32L415.499 183H410.449L403.763 161.662H403.692L396.935 183H391.921ZM395.904 176.279L397.184 172.509H409.845L411.125 176.279H395.904Z" fill="white"/>
<path d="M139.376 135.667C138.143 135.667 137.076 135.401 136.176 134.867C135.286 134.322 134.599 133.569 134.113 132.609C133.627 131.637 133.384 130.517 133.384 129.248C133.384 127.968 133.627 126.848 134.113 125.888C134.599 124.916 135.286 124.157 136.176 123.612C137.076 123.066 138.143 122.794 139.376 122.794C140.834 122.794 142.026 123.149 142.95 123.86C143.875 124.572 144.462 125.567 144.711 126.848H142.612C142.447 126.125 142.091 125.55 141.546 125.123C141 124.696 140.271 124.483 139.358 124.483C138.114 124.483 137.13 124.91 136.407 125.763C135.684 126.605 135.322 127.766 135.322 129.248C135.322 130.718 135.684 131.874 136.407 132.716C137.13 133.557 138.114 133.978 139.358 133.978C140.271 133.978 141 133.777 141.546 133.374C142.091 132.971 142.447 132.419 142.612 131.72H144.711C144.462 132.953 143.875 133.919 142.95 134.618C142.026 135.318 140.834 135.667 139.376 135.667ZM146.711 135.454V126.634H148.401L148.561 128.306C148.869 127.725 149.296 127.269 149.841 126.937C150.398 126.593 151.068 126.421 151.85 126.421V128.395H151.335C150.813 128.395 150.345 128.484 149.93 128.662C149.527 128.827 149.201 129.118 148.952 129.533C148.715 129.936 148.596 130.499 148.596 131.222V135.454H146.711ZM157.349 135.667C156.483 135.667 155.713 135.478 155.037 135.098C154.373 134.707 153.852 134.168 153.472 133.48C153.093 132.793 152.903 131.993 152.903 131.08C152.903 130.155 153.087 129.343 153.454 128.644C153.834 127.944 154.355 127.399 155.019 127.008C155.695 126.617 156.477 126.421 157.366 126.421C158.232 126.421 158.985 126.617 159.625 127.008C160.265 127.387 160.763 127.897 161.118 128.537C161.474 129.177 161.652 129.883 161.652 130.653C161.652 130.772 161.646 130.902 161.634 131.044C161.634 131.175 161.628 131.323 161.616 131.489H154.752C154.812 132.342 155.09 132.994 155.588 133.445C156.098 133.883 156.685 134.103 157.349 134.103C157.882 134.103 158.327 133.984 158.682 133.747C159.05 133.498 159.322 133.166 159.5 132.751H161.385C161.148 133.581 160.674 134.275 159.963 134.832C159.263 135.389 158.392 135.667 157.349 135.667ZM157.349 127.968C156.72 127.968 156.163 128.158 155.677 128.537C155.191 128.905 154.895 129.462 154.788 130.209H159.767C159.731 129.521 159.488 128.976 159.038 128.573C158.587 128.17 158.024 127.968 157.349 127.968ZM167.626 135.667C166.773 135.667 166.02 135.466 165.368 135.063C164.716 134.66 164.206 134.109 163.839 133.409C163.471 132.71 163.287 131.916 163.287 131.026C163.287 130.137 163.471 129.349 163.839 128.662C164.206 127.962 164.716 127.417 165.368 127.026C166.032 126.623 166.79 126.421 167.644 126.421C168.343 126.421 168.954 126.557 169.475 126.83C170.009 127.103 170.424 127.488 170.72 127.986V122.651H172.605V135.454H170.916L170.72 134.085C170.436 134.5 170.044 134.867 169.547 135.187C169.049 135.507 168.409 135.667 167.626 135.667ZM167.964 134.032C168.77 134.032 169.428 133.753 169.938 133.196C170.459 132.639 170.72 131.921 170.72 131.044C170.72 130.155 170.459 129.438 169.938 128.893C169.428 128.336 168.77 128.057 167.964 128.057C167.158 128.057 166.494 128.336 165.972 128.893C165.451 129.438 165.19 130.155 165.19 131.044C165.19 131.625 165.309 132.141 165.546 132.591C165.783 133.042 166.109 133.397 166.524 133.658C166.95 133.907 167.431 134.032 167.964 134.032ZM176.048 124.963C175.693 124.963 175.396 124.856 175.159 124.643C174.934 124.418 174.821 124.139 174.821 123.807C174.821 123.475 174.934 123.203 175.159 122.989C175.396 122.764 175.693 122.651 176.048 122.651C176.404 122.651 176.694 122.764 176.92 122.989C177.157 123.203 177.275 123.475 177.275 123.807C177.275 124.139 177.157 124.418 176.92 124.643C176.694 124.856 176.404 124.963 176.048 124.963ZM175.106 135.454V126.634H176.991V135.454H175.106ZM183.178 135.454C182.312 135.454 181.625 135.247 181.115 134.832C180.605 134.405 180.35 133.652 180.35 132.573V128.217H178.839V126.634H180.35L180.581 124.394H182.235V126.634H184.725V128.217H182.235V132.573C182.235 133.06 182.336 133.397 182.537 133.587C182.751 133.765 183.112 133.854 183.622 133.854H184.636V135.454H183.178ZM191.219 135.454V123.007H195.914C197.206 123.007 198.184 123.309 198.848 123.914C199.512 124.518 199.843 125.277 199.843 126.19C199.843 126.984 199.63 127.618 199.203 128.092C198.777 128.555 198.261 128.869 197.656 129.035C198.13 129.13 198.551 129.319 198.919 129.604C199.298 129.888 199.594 130.244 199.808 130.671C200.021 131.098 200.128 131.56 200.128 132.058C200.128 132.698 199.968 133.279 199.648 133.8C199.34 134.31 198.883 134.713 198.279 135.01C197.674 135.306 196.933 135.454 196.056 135.454H191.219ZM193.104 128.341H195.683C196.406 128.341 196.957 128.175 197.336 127.844C197.716 127.5 197.905 127.032 197.905 126.439C197.905 125.858 197.716 125.396 197.336 125.052C196.969 124.708 196.406 124.536 195.647 124.536H193.104V128.341ZM193.104 133.907H195.807C196.566 133.907 197.152 133.729 197.567 133.374C197.994 133.018 198.208 132.52 198.208 131.88C198.208 131.24 197.988 130.736 197.55 130.369C197.111 129.989 196.518 129.8 195.771 129.8H193.104V133.907ZM205.11 135.667C204.363 135.667 203.747 135.543 203.261 135.294C202.775 135.045 202.413 134.719 202.176 134.316C201.939 133.901 201.821 133.451 201.821 132.965C201.821 132.111 202.152 131.435 202.816 130.938C203.48 130.44 204.429 130.191 205.661 130.191H207.973V130.031C207.973 129.343 207.783 128.827 207.404 128.484C207.036 128.14 206.556 127.968 205.964 127.968C205.442 127.968 204.986 128.098 204.594 128.359C204.215 128.608 203.984 128.982 203.901 129.479H202.016C202.075 128.839 202.289 128.294 202.656 127.844C203.036 127.381 203.51 127.032 204.079 126.794C204.66 126.545 205.294 126.421 205.981 126.421C207.214 126.421 208.169 126.747 208.844 127.399C209.52 128.039 209.858 128.916 209.858 130.031V135.454H208.222L208.062 133.943C207.813 134.429 207.451 134.838 206.977 135.17C206.503 135.502 205.881 135.667 205.11 135.667ZM205.484 134.138C205.993 134.138 206.42 134.02 206.764 133.783C207.119 133.534 207.392 133.208 207.582 132.805C207.783 132.402 207.908 131.957 207.955 131.471H205.857C205.11 131.471 204.577 131.601 204.257 131.862C203.948 132.123 203.794 132.449 203.794 132.84C203.794 133.243 203.942 133.563 204.239 133.8C204.547 134.026 204.962 134.138 205.484 134.138ZM212.056 135.454V122.651H213.94V135.454H212.056ZM219.315 135.667C218.568 135.667 217.951 135.543 217.465 135.294C216.979 135.045 216.618 134.719 216.381 134.316C216.144 133.901 216.025 133.451 216.025 132.965C216.025 132.111 216.357 131.435 217.021 130.938C217.685 130.44 218.633 130.191 219.866 130.191H222.177V130.031C222.177 129.343 221.988 128.827 221.608 128.484C221.241 128.14 220.761 127.968 220.168 127.968C219.647 127.968 219.19 128.098 218.799 128.359C218.42 128.608 218.188 128.982 218.105 129.479H216.221C216.28 128.839 216.493 128.294 216.861 127.844C217.24 127.381 217.714 127.032 218.283 126.794C218.864 126.545 219.498 126.421 220.186 126.421C221.419 126.421 222.373 126.747 223.049 127.399C223.724 128.039 224.062 128.916 224.062 130.031V135.454H222.426L222.266 133.943C222.017 134.429 221.656 134.838 221.182 135.17C220.708 135.502 220.085 135.667 219.315 135.667ZM219.688 134.138C220.198 134.138 220.625 134.02 220.968 133.783C221.324 133.534 221.597 133.208 221.786 132.805C221.988 132.402 222.112 131.957 222.16 131.471H220.061C219.315 131.471 218.781 131.601 218.461 131.862C218.153 132.123 217.999 132.449 217.999 132.84C217.999 133.243 218.147 133.563 218.443 133.8C218.752 134.026 219.166 134.138 219.688 134.138ZM226.26 135.454V126.634H227.932L228.074 128.181C228.346 127.636 228.744 127.209 229.265 126.901C229.799 126.581 230.409 126.421 231.097 126.421C232.164 126.421 232.999 126.753 233.604 127.417C234.22 128.081 234.529 129.07 234.529 130.386V135.454H232.661V130.582C232.661 128.875 231.962 128.021 230.563 128.021C229.864 128.021 229.283 128.27 228.821 128.768C228.37 129.266 228.145 129.977 228.145 130.902V135.454H226.26ZM240.927 135.667C240.062 135.667 239.285 135.472 238.598 135.081C237.922 134.689 237.389 134.15 236.997 133.463C236.618 132.763 236.428 131.957 236.428 131.044C236.428 130.131 236.618 129.331 236.997 128.644C237.389 127.944 237.922 127.399 238.598 127.008C239.285 126.617 240.062 126.421 240.927 126.421C242.018 126.421 242.931 126.706 243.666 127.275C244.412 127.844 244.892 128.614 245.106 129.586H243.132C243.014 129.1 242.753 128.721 242.35 128.448C241.947 128.175 241.472 128.039 240.927 128.039C240.465 128.039 240.038 128.158 239.647 128.395C239.256 128.62 238.942 128.958 238.704 129.408C238.467 129.847 238.349 130.392 238.349 131.044C238.349 131.696 238.467 132.247 238.704 132.698C238.942 133.137 239.256 133.474 239.647 133.711C240.038 133.949 240.465 134.067 240.927 134.067C241.472 134.067 241.947 133.931 242.35 133.658C242.753 133.386 243.014 133 243.132 132.502H245.106C244.904 133.451 244.43 134.215 243.683 134.796C242.936 135.377 242.018 135.667 240.927 135.667ZM251.275 135.667C250.41 135.667 249.639 135.478 248.964 135.098C248.3 134.707 247.778 134.168 247.399 133.48C247.02 132.793 246.83 131.993 246.83 131.08C246.83 130.155 247.014 129.343 247.381 128.644C247.761 127.944 248.282 127.399 248.946 127.008C249.622 126.617 250.404 126.421 251.293 126.421C252.159 126.421 252.911 126.617 253.551 127.008C254.192 127.387 254.689 127.897 255.045 128.537C255.401 129.177 255.579 129.883 255.579 130.653C255.579 130.772 255.573 130.902 255.561 131.044C255.561 131.175 255.555 131.323 255.543 131.489H248.679C248.739 132.342 249.017 132.994 249.515 133.445C250.025 133.883 250.612 134.103 251.275 134.103C251.809 134.103 252.253 133.984 252.609 133.747C252.976 133.498 253.249 133.166 253.427 132.751H255.312C255.075 133.581 254.601 134.275 253.889 134.832C253.19 135.389 252.319 135.667 251.275 135.667ZM251.275 127.968C250.647 127.968 250.09 128.158 249.604 128.537C249.118 128.905 248.821 129.462 248.715 130.209H253.694C253.658 129.521 253.415 128.976 252.965 128.573C252.514 128.17 251.951 127.968 251.275 127.968Z" fill="#E9EDF7"/>
<path opacity="0.1" d="M356.038 276.53L499.371 26.823L577.929 26.823L584.544 276.53H356.038Z" fill="url(#paint1_linear_301_1063)"/>
</g>
<g clip-path="url(#clip2_301_1063)">
<path d="M532.542 127.568C531.319 127.568 530.319 128.568 530.319 129.79C530.319 131.013 531.319 132.013 532.542 132.013C533.764 132.013 534.764 131.013 534.764 129.79C534.764 128.568 533.764 127.568 532.542 127.568ZM545.878 127.568C544.655 127.568 543.655 128.568 543.655 129.79C543.655 131.013 544.655 132.013 545.878 132.013C547.1 132.013 548.101 131.013 548.101 129.79C548.101 128.568 547.1 127.568 545.878 127.568ZM539.21 127.568C537.987 127.568 536.987 128.568 536.987 129.79C536.987 131.013 537.987 132.013 539.21 132.013C540.432 132.013 541.432 131.013 541.432 129.79C541.432 128.568 540.432 127.568 539.21 127.568Z" fill="white"/>
</g>
<path d="M481.419 173.813C482.266 178.043 485.639 185.914 493.475 185.327C501.311 184.739 502.249 165.354 515.967 165.354C529.684 165.354 529.684 187.71 552.546 168.375" stroke="white" stroke-width="2.35573" stroke-linecap="round" stroke-linejoin="round"/>
</g>
<path d="M122.593 317.905C109.287 328.252 91.5451 319.342 84.3376 313.593L41.0925 479.276L610.763 497.754C614.367 422.406 616.917 268.877 598.289 257.544C575.003 243.378 563.36 269.863 559.202 277.87C555.044 285.877 540.906 292.036 529.263 289.572C517.62 287.108 492.671 317.905 475.206 325.296C457.742 332.687 433.625 292.036 422.813 285.261C412.002 278.486 402.854 293.268 398.696 292.036C394.538 290.804 377.073 252.001 364.599 252.617C352.124 253.233 341.313 289.572 332.165 285.261C323.017 280.949 313.037 313.593 282.267 335.15C251.496 356.708 239.022 253.233 222.389 248.305C205.756 243.378 200.767 264.935 184.134 285.261C167.501 305.586 160.016 290.188 155.027 285.261C150.037 280.333 139.226 304.97 122.593 317.905Z" fill="url(#paint2_linear_301_1063)"/>
<path d="M122.593 317.905C109.287 328.252 91.5451 319.342 84.3376 313.593L41.0925 479.276L610.763 497.754C614.367 422.406 616.917 268.877 598.289 257.544C575.003 243.378 563.36 269.863 559.202 277.87C555.044 285.877 540.906 292.036 529.263 289.572C517.62 287.108 492.671 317.905 475.206 325.296C457.742 332.687 433.625 292.036 422.813 285.261C412.002 278.486 402.854 293.268 398.696 292.036C394.538 290.804 377.073 252.001 364.599 252.617C352.124 253.233 341.313 289.572 332.165 285.261C323.017 280.949 313.037 313.593 282.267 335.15C251.496 356.708 239.022 253.233 222.389 248.305C205.756 243.378 200.767 264.935 184.134 285.261C167.501 305.586 160.016 290.188 155.027 285.261C150.037 280.333 139.226 304.97 122.593 317.905Z" stroke="#006EEA" stroke-width="4.44542" stroke-linecap="round" stroke-linejoin="round"/>
</g>
<rect x="117" y="342" width="192" height="60" rx="10" fill="white"/>
<rect x="135" y="366" width="156" height="12" rx="6" fill="#0097FE"/>
<rect x="173" y="418" width="192" height="60" rx="10" fill="white"/>
<rect x="191" y="442" width="156" height="12" rx="6" fill="#F7EDFE"/>
<path fill-rule="evenodd" clip-rule="evenodd" d="M504 461.345C501.373 461.345 498.746 460.694 496.413 459.377L494.065 458.052C457.167 437.297 434.25 398.113 434.25 355.783V354.659C434.25 349.087 437.273 343.91 442.14 341.158L496.405 310.639C501.094 308.004 506.914 307.996 511.588 310.631L565.845 341.151C570.728 343.91 573.75 349.087 573.75 354.659V355.783C573.75 398.113 550.834 437.297 513.936 458.052L511.595 459.369C509.255 460.687 506.628 461.345 504 461.345Z" fill="#03133D"/>
<mask id="mask1_301_1063" style="mask-type:luminance" maskUnits="userSpaceOnUse" x="434" y="308" width="140" height="154">
<path fill-rule="evenodd" clip-rule="evenodd" d="M504 461.345C501.373 461.345 498.746 460.694 496.413 459.377L494.065 458.052C457.167 437.297 434.25 398.113 434.25 355.783V354.659C434.25 349.087 437.273 343.91 442.14 341.158L496.405 310.639C501.094 308.004 506.914 307.996 511.588 310.631L565.845 341.151C570.728 343.91 573.75 349.087 573.75 354.659V355.783C573.75 398.113 550.834 437.297 513.936 458.052L511.595 459.369C509.255 460.687 506.628 461.345 504 461.345Z" fill="white"/>
</mask>
<g mask="url(#mask1_301_1063)">
<rect x="411" y="292" width="186" height="186" rx="10" fill="url(#paint3_linear_301_1063)"/>
</g>
<path fill-rule="evenodd" clip-rule="evenodd" d="M517.316 377.777L503.155 396.377C502.572 397.142 501.67 397.595 500.709 397.601H500.688C499.736 397.601 498.837 397.161 498.248 396.411L490.709 386.779C489.655 385.434 489.89 383.484 491.239 382.43C492.584 381.373 494.537 381.608 495.591 382.96L500.653 389.427L512.384 374.023C513.419 372.662 515.363 372.395 516.73 373.434C518.091 374.472 518.354 376.416 517.316 377.777ZM504.001 354.201C486.88 354.201 473.001 368.08 473.001 385.201C473.001 402.32 486.88 416.201 504.001 416.201C521.123 416.201 535.001 402.32 535.001 385.201C535.001 368.08 521.123 354.201 504.001 354.201Z" fill="#231F20"/>
<mask id="mask2_301_1063" style="mask-type:luminance" maskUnits="userSpaceOnUse" x="473" y="354" width="63" height="63">
<path fill-rule="evenodd" clip-rule="evenodd" d="M517.316 377.777L503.155 396.377C502.572 397.142 501.67 397.595 500.709 397.601H500.688C499.736 397.601 498.837 397.161 498.248 396.411L490.709 386.779C489.655 385.434 489.89 383.484 491.239 382.43C492.584 381.373 494.537 381.608 495.591 382.96L500.653 389.427L512.384 374.023C513.419 372.662 515.363 372.395 516.73 373.434C518.091 374.472 518.354 376.416 517.316 377.777ZM504.001 354.201C486.88 354.201 473.001 368.08 473.001 385.201C473.001 402.32 486.88 416.201 504.001 416.201C521.123 416.201 535.001 402.32 535.001 385.201C535.001 368.08 521.123 354.201 504.001 354.201Z" fill="white"/>
</mask>
<g mask="url(#mask2_301_1063)">
<rect x="466.8" y="348" width="74.4" height="74.4" fill="white"/>
</g>
</g>
<defs>
<filter id="filter0_d_301_1063" x="0" y="0" width="701" height="598" filterUnits="userSpaceOnUse" color-interpolation-filters="sRGB">
<feFlood flood-opacity="0" result="BackgroundImageFix"/>
<feColorMatrix in="SourceAlpha" type="matrix" values="0 0 0 0 0 0 0 0 0 0 0 0 0 0 0 0 0 0 127 0" result="hardAlpha"/>
<feOffset dx="8" dy="24"/>
<feGaussianBlur stdDeviation="48"/>
<feComposite in2="hardAlpha" operator="out"/>
<feColorMatrix type="matrix" values="0 0 0 0 0.494118 0 0 0 0 0.541176 0 0 0 0 0.992157 0 0 0 0.08 0"/>
<feBlend mode="normal" in2="BackgroundImageFix" result="effect1_dropShadow_301_1063"/>
<feBlend mode="normal" in="SourceGraphic" in2="effect1_dropShadow_301_1063" result="shape"/>
</filter>
<linearGradient id="paint0_linear_301_1063" x1="114.673" y1="98.6725" x2="160.182" y2="297.173" gradientUnits="userSpaceOnUse">
<stop stop-color="#158EFF"/>
</linearGradient>
<linearGradient id="paint1_linear_301_1063" x1="505.573" y1="-9.43117" x2="474.341" y2="257.263" gradientUnits="userSpaceOnUse">
<stop stop-color="white"/>
<stop offset="0.0001" stop-color="white"/>
<stop offset="1" stop-color="white" stop-opacity="0"/>
</linearGradient>
<linearGradient id="paint2_linear_301_1063" x1="355.295" y1="213.756" x2="355.295" y2="492.92" gradientUnits="userSpaceOnUse">
<stop stop-color="#F3F0FF"/>
<stop offset="1" stop-color="#F1EDFF" stop-opacity="0"/>
</linearGradient>
<linearGradient id="paint3_linear_301_1063" x1="411" y1="292" x2="597" y2="478" gradientUnits="userSpaceOnUse">
<stop offset="1" stop-color="#05CD99"/>
</linearGradient>
<clipPath id="clip0_301_1063">
<rect x="88" y="72" width="509" height="315.624" rx="11.1135" fill="white"/>
</clipPath>
<clipPath id="clip1_301_1063">
<rect x="114.673" y="98.6725" width="455.655" height="104.467" rx="11.1135" fill="white"/>
</clipPath>
<clipPath id="clip2_301_1063">
<rect width="26.6725" height="26.6725" fill="white" transform="translate(525.874 116.454)"/>
</clipPath>
</defs>
</svg>
